<svg xmlns="http://www.w3.org/2000/svg" width="32" height="32" viewBox="0 0 32 32">
    <g fill="none" fill-rule="evenodd">
        <g>
            <g>
                <g>
                    <g>
                        <g>
                            <g>
                                <path d="M0 0H32V32H0z" transform="translate(-861.000000, -288.000000) translate(245.000000, 160.000000) translate(0.000000, 104.000000) translate(600.000000, 0.000000) translate(16.000000, 24.000000)"/>
                                <g>
                                    <path stroke="#5C5C5C" d="M21.633 23.383H2c-.736 0-1.333-.597-1.333-1.333V4.633c0-.738.597-1.334 1.333-1.334h19.633c.736 0 1.334.596 1.334 1.334V22.05c0 .736-.598 1.333-1.334 1.333z" transform="translate(-861.000000, -288.000000) translate(245.000000, 160.000000) translate(0.000000, 104.000000) translate(600.000000, 0.000000) translate(16.000000, 24.000000) translate(4.000000, 4.000000)"/>
                                    <path stroke="#5C5C5C" stroke-linecap="round" d="M17.575.666L17.575 6.266M5.86.666L5.86 6.266M22.967 9.478L.667 9.478" transform="translate(-861.000000, -288.000000) translate(245.000000, 160.000000) translate(0.000000, 104.000000) translate(600.000000, 0.000000) translate(16.000000, 24.000000) translate(4.000000, 4.000000)"/>
                                    <path fill="#42A047" d="M6.468 15.258H4.754c-.474 0-.858-.384-.858-.857v-1.387c0-.473.384-.856.858-.856h1.714c.474 0 .858.383.858.856v1.387c0 .473-.384.857-.858.857M12.673 15.258H10.96c-.474 0-.856-.384-.856-.857v-1.387c0-.473.382-.856.856-.856h1.714c.474 0 .858.383.858.856v1.387c0 .473-.384.857-.858.857M18.88 15.258h-1.715c-.474 0-.858-.384-.858-.857v-1.387c0-.473.384-.856.858-.856h1.714c.474 0 .858.383.858.856v1.387c0 .473-.384.857-.858.857M6.468 20.427H4.754c-.474 0-.858-.384-.858-.858v-1.386c0-.474.384-.856.858-.856h1.714c.474 0 .858.382.858.856v1.386c0 .474-.384.858-.858.858M12.673 20.427H10.96c-.474 0-.856-.384-.856-.858v-1.386c0-.474.382-.856.856-.856h1.714c.474 0 .858.382.858.856v1.386c0 .474-.384.858-.858.858M18.88 20.427h-1.715c-.474 0-.858-.384-.858-.858v-1.386c0-.474.384-.856.858-.856h1.714c.474 0 .858.382.858.856v1.386c0 .474-.384.858-.858.858" transform="translate(-861.000000, -288.000000) translate(245.000000, 160.000000) translate(0.000000, 104.000000) translate(600.000000, 0.000000) translate(16.000000, 24.000000) translate(4.000000, 4.000000)"/>
                                </g>
                            </g>
                        </g>
                    </g>
                </g>
            </g>
        </g>
    </g>
</svg>
