
<svg xmlns="http://www.w3.org/2000/svg" xmlns:xlink="http://www.w3.org/1999/xlink" width="32" height="32" viewBox="0 0 32 32">
    <defs>
        <path id="z7xx4z5sja" d="M0.35 0L6.029 0 6.029 1.27 0.35 1.27z"/>
    </defs>
    <g fill="none" fill-rule="evenodd">
        <g>
            <g>
                <g>
                    <g>
                        <g>
                            <g>
                                <path d="M0 0H32V32H0z" transform="translate(-261.000000, -288.000000) translate(245.000000, 160.000000) translate(0.000000, 104.000000) translate(16.000000, 24.000000)"/>
                                <g>
                                    <g fill="#42A047">
                                        <path d="M4.375 6.902c-.013-.188.156-1.708.204-2.036.008-.045.034-.108-.013-.136-.043-.025-.089.025-.13.047-.098.051-.15.138-.185.24-.101.308-.703 2.008-.744 2.03-.005.122-.12.111-.197.148-.218.001-.292.12-.335.328-.275 1.343-.566 2.684-.853 4.025-.01.047-.026.092-.042.15-.141-.113-.282-.208-.457-.231-.371-.05-.705.132-.843.48-.042.107-.085.123-.187.102-.44-.096-.667-.442-.571-.89.185-.868.37-1.735.558-2.604.096-.44.433-.654.874-.561.287.062.574.13.862.184.212.04.177.076.226-.156.052-.245.1-.492.164-.735.028-.115.003-.187-.1-.238-.134-.07-.17-.194-.186-.331 0-.022.003-.04.008-.057-.005-.042.524-1.804.623-2.149.11-.376.328-.646.678-.823.47-.236.933-.489 1.397-.734.184-.098.374-.186.583-.212.624-.076 1.152.43 1.102 1.072-.025.335-.083.668-.13 1.002L6.373 6.98c-.029.208.046.37.202.504.297.256.588.52.892.768.315.258.462.582.486.987.053.88.127 1.76.192 2.64.025.353-.159.647-.478.768-.3.117-.64.025-.845-.227-.096-.117-.152-.25-.164-.402-.049-.623-.096-1.247-.142-1.869-.017-.208-.036-.416-.041-.625-.003-.115-.046-.191-.132-.264-.454-.383-.9-.777-1.356-1.158-.285-.237-.51-.508-.609-.872 0 0 .002-.247-.003-.33M6.35 2.39c.66 0 1.192-.53 1.193-1.189C7.545.532 7.013-.003 6.347 0c-.662.001-1.194.53-1.195 1.187-.003.668.53 1.203 1.199 1.203" transform="translate(-261.000000, -288.000000) translate(245.000000, 160.000000) translate(0.000000, 104.000000) translate(16.000000, 24.000000) translate(0.000000, 2.666667) translate(0.000000, 6.216245)"/>
                                        <path d="M1.492 11.78c-.249.004-.455.211-.455.457-.001.254.214.463.473.46.251-.002.448-.203.448-.458 0-.263-.205-.464-.466-.459M6.876 5.64c.072-.436.11-.761.182-1.161l.083.048 1.6 1.045c.186.123.38.238.554.373.226.176.19.536-.06.755-.216.19-.49.226-.705.086-.573-.37-1.022-.573-1.594-.945-.103-.067-.082-.062-.06-.202M5.456 8.924c-.353-.312-.731-.598-1.071-.957l-.049.134-.882 2.743c-.103.322-.218.64-.298.964-.103.422.209.837.64.883.37.04.684-.16.803-.529.319-.977.633-1.956.949-2.934.057-.175.054-.174-.092-.304" transform="translate(-261.000000, -288.000000) translate(245.000000, 160.000000) translate(0.000000, 104.000000) translate(16.000000, 24.000000) translate(0.000000, 2.666667) translate(0.000000, 6.216245)"/>
                                    </g>
                                    <path d="M25.418 20.133h-10.88c-1.737 0-3.144-1.407-3.144-3.145V4.234c0-.7.569-1.27 1.27-1.27h14.628c.701 0 1.27.57 1.27 1.27v12.754c0 1.738-1.408 3.145-3.144 3.145" transform="translate(-261.000000, -288.000000) translate(245.000000, 160.000000) translate(0.000000, 104.000000) translate(16.000000, 24.000000) translate(0.000000, 2.666667)"/>
                                    <path stroke="#5C5C5C" stroke-linecap="round" d="M25.418 20.133h-10.88c-1.737 0-3.144-1.407-3.144-3.145V4.234c0-.7.569-1.27 1.27-1.27h14.628c.701 0 1.27.57 1.27 1.27v12.754c0 1.738-1.408 3.145-3.144 3.145z" transform="translate(-261.000000, -288.000000) translate(245.000000, 160.000000) translate(0.000000, 104.000000) translate(16.000000, 24.000000) translate(0.000000, 2.666667)"/>
                                    <g transform="translate(-261.000000, -288.000000) translate(245.000000, 160.000000) translate(0.000000, 104.000000) translate(16.000000, 24.000000) translate(0.000000, 2.666667) translate(16.634921, 0.000000)">
                                        <path stroke="#5C5C5C" stroke-linecap="round" d="M6.029 0.635L0.35 0.635"/>
                                    </g>
                                    <path fill="#42A047" d="M15.943 15.815c0 .634-.513 1.147-1.147 1.147-.633 0-1.146-.513-1.146-1.147 0-.633.513-1.146 1.146-1.146.634 0 1.147.513 1.147 1.146M26.25 15.815c0 .634-.513 1.147-1.147 1.147s-1.147-.513-1.147-1.147c0-.633.513-1.146 1.147-1.146s1.147.513 1.147 1.146" transform="translate(-261.000000, -288.000000) translate(245.000000, 160.000000) translate(0.000000, 104.000000) translate(16.000000, 24.000000) translate(0.000000, 2.666667)"/>
                                    <path stroke="#5C5C5C" stroke-linecap="round" d="M13.213 20.133L10.062 26.032M26.443 20.133L29.595 26.032M12.608 25.267L27.046 25.267M15.457 22.7L24.198 22.7" transform="translate(-261.000000, -288.000000) translate(245.000000, 160.000000) translate(0.000000, 104.000000) translate(16.000000, 24.000000) translate(0.000000, 2.666667)"/>
                                    <path stroke="#5C5C5C" stroke-linecap="round" stroke-linejoin="round" d="M19.512 0.635L20.648 1.874 20.648 2.965" transform="translate(-261.000000, -288.000000) translate(245.000000, 160.000000) translate(0.000000, 104.000000) translate(16.000000, 24.000000) translate(0.000000, 2.666667)"/>
                                    <path stroke="#5C5C5C" stroke-linecap="round" d="M19.094 11.938h-4.437c-.42 0-.76-.341-.76-.762V6.48c0-.42.34-.762.76-.762h4.437c.42 0 .762.342.762.762v4.696c0 .42-.342.762-.762.762z" transform="translate(-261.000000, -288.000000) translate(245.000000, 160.000000) translate(0.000000, 104.000000) translate(16.000000, 24.000000) translate(0.000000, 2.666667)"/>
                                    <path stroke="#5C5C5C" stroke-linecap="round" d="M25.278 11.938h-10.62c-.421 0-.761-.341-.761-.762V6.48c0-.42.34-.762.76-.762h10.621c.422 0 .762.342.762.762v4.696c0 .42-.34.762-.762.762z" transform="translate(-261.000000, -288.000000) translate(245.000000, 160.000000) translate(0.000000, 104.000000) translate(16.000000, 24.000000) translate(0.000000, 2.666667)"/>
                                </g>
                            </g>
                        </g>
                    </g>
                </g>
            </g>
        </g>
    </g>
</svg>
